<svg width="1080" height="1650" viewBox="0 0 1080 1650" fill="none" xmlns="http://www.w3.org/2000/svg">
<path d="M403.543 1441.84C403.543 1443.76 401.943 1444.72 398.743 1444.72C396.103 1444.72 394.343 1443.92 393.463 1442.32L377.503 1411.12L360.103 1444C358.983 1444.72 357.623 1445.08 356.023 1445.08C352.263 1445.08 350.383 1444.04 350.383 1441.96C350.383 1440.6 357.663 1427.12 372.223 1401.52C359.663 1378.8 353.383 1367 353.383 1366.12C353.383 1364.92 354.143 1363.92 355.663 1363.12C357.103 1362.48 358.383 1362.16 359.503 1362.16C361.983 1362.16 363.623 1363.04 364.423 1364.8L377.623 1392.04L390.943 1365.64C392.143 1363.24 394.303 1362.04 397.423 1362.04C398.543 1362.04 399.583 1362.36 400.543 1363C401.583 1363.64 402.103 1364.48 402.103 1365.52C402.103 1366.96 395.543 1379 382.423 1401.64C396.503 1426.52 403.543 1439.92 403.543 1441.84Z" fill="#484747"/>
<path d="M730.383 1366L708.423 1411.36L708.303 1441.36C708.303 1442.8 707.663 1443.8 706.383 1444.36C705.183 1445.08 703.903 1445.44 702.543 1445.44C699.423 1445.44 697.863 1444.16 697.863 1441.6L698.103 1411.36C683.143 1381.52 675.663 1366.12 675.663 1365.16C675.663 1363.64 677.423 1362.88 680.943 1362.88C684.383 1362.88 686.543 1363.8 687.423 1365.64L703.623 1399.84L719.583 1365.88C720.623 1363.72 723.103 1362.64 727.023 1362.64C728.463 1362.64 729.583 1363.76 730.383 1366Z" fill="#484747"/>
<path d="M556.103 1041V1024.44C551.223 1020.44 545.823 1018.44 539.903 1018.44C529.743 1018.44 524.663 1024.56 524.663 1036.8C524.663 1048.88 529.343 1054.92 538.703 1054.92C542.943 1054.92 546.823 1053.72 550.343 1051.32C554.183 1048.6 556.103 1045.16 556.103 1041ZM566.423 1041V1062.24C566.423 1070.32 563.783 1077.08 558.503 1082.52C553.303 1088.04 546.743 1090.84 538.823 1090.92C534.503 1090.68 529.783 1090.36 524.663 1089.96C519.943 1089.08 516.423 1087.92 514.103 1086.48C511.783 1085.04 511.143 1082.92 512.183 1080.12C513.143 1077.64 514.903 1076.52 517.463 1076.76C520.023 1077.08 522.423 1077.76 524.663 1078.8C529.383 1079.68 533.303 1080.12 536.423 1080.12C543.223 1080.12 548.383 1078.08 551.903 1074C555.103 1070.08 556.503 1065.12 556.103 1059.12C550.583 1063.04 544.503 1065 537.863 1065C533.303 1065 528.943 1063.64 524.783 1060.92C520.783 1058.2 517.863 1054.64 516.023 1050.24C514.423 1046.16 513.623 1041.48 513.623 1036.2C513.623 1028.12 515.863 1021.36 520.343 1015.92C525.063 1010.24 531.303 1007.4 539.063 1007.4C545.223 1007.4 550.903 1009.24 556.103 1012.92C555.943 1009.32 557.703 1007.52 561.383 1007.52C564.583 1007.52 566.223 1009.24 566.303 1012.68C566.383 1017.4 566.423 1022.12 566.423 1026.84C566.423 1031.48 566.423 1036.2 566.423 1041Z" fill="#484747"/>
<rect x="468" y="568" width="143" height="143" rx="20" fill="#D9D9D9" fill-opacity="0.2"/>
<rect x="472" y="572" width="135" height="135" rx="16" stroke="black" stroke-opacity="0.2" stroke-width="8" stroke-dasharray="20 20"/>
<path d="M398.503 607.88C398.663 609.96 398.103 611.68 396.823 613.04C396.183 613.52 395.383 613.64 394.423 613.4C393.383 613.24 392.383 612.96 391.423 612.56C390.463 612.16 389.503 611.68 388.543 611.12C386.223 609.76 383.983 609.08 381.823 609.08C380.063 609.08 378.783 609.6 377.983 610.64C376.383 612.16 375.503 615.04 375.343 619.28C375.343 619.92 375.343 620.72 375.343 621.68C375.343 622.64 375.303 623.8 375.223 625.16H388.423C389.863 625.16 391.023 626.08 391.903 627.92C392.063 628.32 392.183 628.76 392.263 629.24C392.343 629.64 392.423 630.08 392.503 630.56C392.583 631.84 392.343 633.08 391.783 634.28C391.143 635.16 390.143 635.6 388.783 635.6H375.223V675.08C375.383 675.08 375.383 675.16 375.223 675.32H375.103C375.183 677.48 374.703 679 373.663 679.88C372.623 680.76 371.423 681.2 370.063 681.2C366.623 681.12 364.903 679.08 364.903 675.08V635.6H359.263C357.983 635.6 357.023 635.16 356.383 634.28C355.663 633.08 355.303 631.84 355.303 630.56C355.303 629.28 355.663 628.08 356.383 626.96C356.943 625.76 357.903 625.16 359.263 625.16H364.903C364.983 622.6 365.023 620.64 365.023 619.28C365.103 617.92 365.143 617.12 365.143 616.88C365.143 613.52 365.503 610.64 366.223 608.24C366.943 605.84 368.303 603.68 370.303 601.76C372.223 599.92 375.023 598.96 378.703 598.88C383.583 598.72 387.703 599.36 391.063 600.8C395.943 602.88 398.423 605.24 398.503 607.88Z" fill="#484747"/>
<rect x="305" y="972" width="143" height="143" rx="20" fill="#D9D9D9" fill-opacity="0.2"/>
<rect x="309" y="976" width="135" height="135" rx="16" stroke="black" stroke-opacity="0.2" stroke-width="8" stroke-dasharray="20 20"/>
<rect x="631" y="972" width="143" height="143" rx="20" fill="#D9D9D9" fill-opacity="0.2"/>
<rect x="635" y="976" width="135" height="135" rx="16" stroke="black" stroke-opacity="0.2" stroke-width="8" stroke-dasharray="20 20"/>
<path d="M475.383 230.04C475.383 234.2 474.343 238.36 472.263 242.52C470.023 247.08 466.903 249.92 462.903 251.04C464.583 253.44 465.703 255.24 466.263 256.44C466.823 257.56 467.783 259.28 469.143 261.6C470.423 265.84 472.223 269.4 474.543 272.28C476.943 275.08 479.943 277.4 483.543 279.24C485.463 280.68 486.423 282.36 486.423 284.28C486.423 285.56 485.903 286.68 484.863 287.64C483.823 288.6 482.623 289.08 481.263 289.08C480.543 289.08 478.503 288.36 475.143 286.92C471.863 285.4 468.983 283.16 466.503 280.2C464.023 277.24 461.583 272.44 459.183 265.8C457.343 260.84 455.063 257.04 452.343 254.4C451.943 254.08 451.503 253.76 451.023 253.44C450.543 253.12 450.183 252.8 449.943 252.48H441.543V284.28C441.543 287.16 439.823 288.6 436.383 288.6C432.863 288.6 431.103 287.16 431.103 284.28V213.6C431.103 212 432.343 210.64 434.823 209.52C437.303 208.32 440.823 207.72 445.383 207.72C451.063 207.72 455.623 207.96 459.063 208.44C462.503 208.92 465.143 209.64 466.983 210.6C472.583 213.56 475.383 220.04 475.383 230.04ZM465.423 229.56C465.423 226.52 464.743 223.88 463.383 221.64C462.583 220.36 461.783 219.48 460.983 219C460.183 218.44 459.063 218.16 457.623 218.16C457.543 218.16 456.103 218.12 453.303 218.04C450.503 217.96 446.583 218 441.543 218.16V241.68C441.543 241.68 442.103 241.68 443.223 241.68C444.343 241.68 445.263 241.68 445.983 241.68C446.703 241.68 447.303 241.68 447.783 241.68C448.263 241.68 449.463 241.68 451.383 241.68C454.743 241.68 458.063 241.04 461.343 239.76C464.063 237.36 465.423 233.96 465.423 229.56Z" fill="#484747"/>
<path d="M371.5 1324.5C371.5 1327.26 373.739 1329.5 376.5 1329.5C379.261 1329.5 381.5 1327.26 381.5 1324.5H371.5ZM380.036 1118.96C378.083 1117.01 374.917 1117.01 372.964 1118.96L341.145 1150.78C339.192 1152.74 339.192 1155.9 341.145 1157.86C343.097 1159.81 346.263 1159.81 348.216 1157.86L376.5 1129.57L404.784 1157.86C406.737 1159.81 409.903 1159.81 411.855 1157.86C413.808 1155.9 413.808 1152.74 411.855 1150.78L380.036 1118.96ZM371.5 1130.92C371.5 1133.68 373.739 1135.92 376.5 1135.92C379.261 1135.92 381.5 1133.68 381.5 1130.92H371.5ZM381.5 1147.75C381.5 1144.99 379.261 1142.75 376.5 1142.75C373.739 1142.75 371.5 1144.99 371.5 1147.75H381.5ZM371.5 1164.58C371.5 1167.34 373.739 1169.58 376.5 1169.58C379.261 1169.58 381.5 1167.34 381.5 1164.58H371.5ZM381.5 1181.42C381.5 1178.66 379.261 1176.42 376.5 1176.42C373.739 1176.42 371.5 1178.66 371.5 1181.42H381.5ZM371.5 1198.25C371.5 1201.01 373.739 1203.25 376.5 1203.25C379.261 1203.25 381.5 1201.01 381.5 1198.25H371.5ZM381.5 1215.08C381.5 1212.32 379.261 1210.08 376.5 1210.08C373.739 1210.08 371.5 1212.32 371.5 1215.08H381.5ZM371.5 1231.92C371.5 1234.68 373.739 1236.92 376.5 1236.92C379.261 1236.92 381.5 1234.68 381.5 1231.92H371.5ZM381.5 1248.75C381.5 1245.99 379.261 1243.75 376.5 1243.75C373.739 1243.75 371.5 1245.99 371.5 1248.75H381.5ZM371.5 1265.58C371.5 1268.34 373.739 1270.58 376.5 1270.58C379.261 1270.58 381.5 1268.34 381.5 1265.58H371.5ZM381.5 1282.42C381.5 1279.66 379.261 1277.42 376.5 1277.42C373.739 1277.42 371.5 1279.66 371.5 1282.42H381.5ZM371.5 1299.25C371.5 1302.01 373.739 1304.25 376.5 1304.25C379.261 1304.25 381.5 1302.01 381.5 1299.25H371.5ZM381.5 1316.08C381.5 1313.32 379.261 1311.08 376.5 1311.08C373.739 1311.08 371.5 1313.32 371.5 1316.08H381.5ZM371.5 1122.5V1130.92H381.5V1122.5H371.5ZM371.5 1147.75V1164.58H381.5V1147.75H371.5ZM371.5 1181.42V1198.25H381.5V1181.42H371.5ZM371.5 1215.08V1231.92H381.5V1215.08H371.5ZM371.5 1248.75V1265.58H381.5V1248.75H371.5ZM371.5 1282.42V1299.25H381.5V1282.42H371.5ZM371.5 1316.08V1324.5H381.5V1316.08H371.5Z" fill="#FF6A13"/>
<path d="M697.5 1324.5C697.5 1327.26 699.739 1329.5 702.5 1329.5C705.261 1329.5 707.5 1327.26 707.5 1324.5H697.5ZM706.036 1118.96C704.083 1117.01 700.917 1117.01 698.964 1118.96L667.145 1150.78C665.192 1152.74 665.192 1155.9 667.145 1157.86C669.097 1159.81 672.263 1159.81 674.216 1157.86L702.5 1129.57L730.784 1157.86C732.737 1159.81 735.903 1159.81 737.855 1157.86C739.808 1155.9 739.808 1152.74 737.855 1150.78L706.036 1118.96ZM707.5 1324.5V1122.5H697.5V1324.5H707.5Z" fill="#FF6A13"/>
<path d="M535.233 908.88C535.233 911.641 537.471 913.88 540.233 913.88C542.994 913.88 545.233 911.641 545.233 908.88H535.233ZM543.768 714.964C541.816 713.012 538.65 713.012 536.697 714.964L504.878 746.784C502.925 748.737 502.925 751.903 504.878 753.855C506.83 755.808 509.996 755.808 511.949 753.855L540.233 725.571L568.517 753.855C570.47 755.808 573.636 755.808 575.588 753.855C577.541 751.903 577.541 748.737 575.588 746.784L543.768 714.964ZM545.233 908.88V718.5H535.233V908.88H545.233Z" fill="#FF6A13"/>
<path d="M451.588 506.145C451.588 508.907 453.827 511.145 456.588 511.145C459.35 511.145 461.588 508.907 461.588 506.145H451.588ZM460.124 319.964C458.171 318.012 455.005 318.012 453.053 319.964L421.233 351.784C419.28 353.737 419.28 356.903 421.233 358.855C423.185 360.808 426.351 360.808 428.304 358.855L456.588 330.571L484.872 358.855C486.825 360.808 489.991 360.808 491.943 358.855C493.896 356.903 493.896 353.737 491.943 351.784L460.124 319.964ZM461.588 506.145V323.5H451.588V506.145H461.588Z" fill="#FF6A13"/>
<path d="M281 1003C281 950.36 303.302 950.36 346.468 950.36L518 950L540 909L562 950L732.696 950.267C775.863 950.267 799 950.36 799 1003" stroke="#FF6A13" stroke-width="10" stroke-linecap="round" stroke-linejoin="round"/>
<path d="M282 602C282 549.36 297.069 549.36 326.235 549.36L435 549.36L457 508L479 549.267L587.2 549.267C616.367 549.267 632 549.36 632 602" stroke="#FF6A13" stroke-width="10" stroke-linecap="round" stroke-linejoin="round"/>
</svg>
