<svg width="1080" height="1650" viewBox="0 0 1080 1650" fill="none" xmlns="http://www.w3.org/2000/svg">
<path d="M520.543 1441.84C520.543 1443.76 518.943 1444.72 515.743 1444.72C513.103 1444.72 511.343 1443.92 510.463 1442.32L494.503 1411.12L477.103 1444C475.983 1444.72 474.623 1445.08 473.023 1445.08C469.263 1445.08 467.383 1444.04 467.383 1441.96C467.383 1440.6 474.663 1427.12 489.223 1401.52C476.663 1378.8 470.383 1367 470.383 1366.12C470.383 1364.92 471.143 1363.92 472.663 1363.12C474.103 1362.48 475.383 1362.16 476.503 1362.16C478.983 1362.16 480.623 1363.04 481.423 1364.8L494.623 1392.04L507.943 1365.64C509.143 1363.24 511.303 1362.04 514.423 1362.04C515.543 1362.04 516.583 1362.36 517.543 1363C518.583 1363.64 519.103 1364.48 519.103 1365.52C519.103 1366.96 512.543 1379 499.423 1401.64C513.503 1426.52 520.543 1439.92 520.543 1441.84Z" fill="#484747"/>
<path d="M771.383 1366L749.423 1411.36L749.303 1441.36C749.303 1442.8 748.663 1443.8 747.383 1444.36C746.183 1445.08 744.903 1445.44 743.543 1445.44C740.423 1445.44 738.863 1444.16 738.863 1441.6L739.103 1411.36C724.143 1381.52 716.663 1366.12 716.663 1365.16C716.663 1363.64 718.423 1362.88 721.943 1362.88C725.383 1362.88 727.543 1363.8 728.423 1365.64L744.623 1399.84L760.583 1365.88C761.623 1363.72 764.103 1362.64 768.023 1362.64C769.463 1362.64 770.583 1363.76 771.383 1366Z" fill="#484747"/>
<path d="M352.503 1014.88C352.663 1016.96 352.103 1018.68 350.823 1020.04C350.183 1020.52 349.383 1020.64 348.423 1020.4C347.383 1020.24 346.383 1019.96 345.423 1019.56C344.463 1019.16 343.503 1018.68 342.543 1018.12C340.223 1016.76 337.983 1016.08 335.823 1016.08C334.063 1016.08 332.783 1016.6 331.983 1017.64C330.383 1019.16 329.503 1022.04 329.343 1026.28C329.343 1026.92 329.343 1027.72 329.343 1028.68C329.343 1029.64 329.303 1030.8 329.223 1032.16H342.423C343.863 1032.16 345.023 1033.08 345.903 1034.92C346.063 1035.32 346.183 1035.76 346.263 1036.24C346.343 1036.64 346.423 1037.08 346.503 1037.56C346.583 1038.84 346.343 1040.08 345.783 1041.28C345.143 1042.16 344.143 1042.6 342.783 1042.6H329.223V1082.08C329.383 1082.08 329.383 1082.16 329.223 1082.32H329.103C329.183 1084.48 328.703 1086 327.663 1086.88C326.623 1087.76 325.423 1088.2 324.063 1088.2C320.623 1088.12 318.903 1086.08 318.903 1082.08V1042.6H313.263C311.983 1042.6 311.023 1042.16 310.383 1041.28C309.663 1040.08 309.303 1038.84 309.303 1037.56C309.303 1036.28 309.663 1035.08 310.383 1033.96C310.943 1032.76 311.903 1032.16 313.263 1032.16H318.903C318.983 1029.6 319.023 1027.64 319.023 1026.28C319.103 1024.92 319.143 1024.12 319.143 1023.88C319.143 1020.52 319.503 1017.64 320.223 1015.24C320.943 1012.84 322.303 1010.68 324.303 1008.76C326.223 1006.92 329.023 1005.96 332.703 1005.88C337.583 1005.72 341.703 1006.36 345.063 1007.8C349.943 1009.88 352.423 1012.24 352.503 1014.88Z" fill="#484747"/>
<rect x="346" y="568" width="143" height="143" rx="20" fill="#D9D9D9" fill-opacity="0.2"/>
<rect x="350" y="572" width="135" height="135" rx="16" stroke="black" stroke-opacity="0.2" stroke-width="8" stroke-dasharray="20 20"/>
<rect x="672" y="568" width="143" height="143" rx="20" fill="#D9D9D9" fill-opacity="0.2"/>
<rect x="676" y="572" width="135" height="135" rx="16" stroke="black" stroke-opacity="0.2" stroke-width="8" stroke-dasharray="20 20"/>
<path d="M597.103 644V627.44C592.223 623.44 586.823 621.44 580.903 621.44C570.743 621.44 565.663 627.56 565.663 639.8C565.663 651.88 570.343 657.92 579.703 657.92C583.943 657.92 587.823 656.72 591.343 654.32C595.183 651.6 597.103 648.16 597.103 644ZM607.423 644V665.24C607.423 673.32 604.783 680.08 599.503 685.52C594.303 691.04 587.743 693.84 579.823 693.92C575.503 693.68 570.783 693.36 565.663 692.96C560.943 692.08 557.423 690.92 555.103 689.48C552.783 688.04 552.143 685.92 553.183 683.12C554.143 680.64 555.903 679.52 558.463 679.76C561.023 680.08 563.423 680.76 565.663 681.8C570.383 682.68 574.303 683.12 577.423 683.12C584.223 683.12 589.383 681.08 592.903 677C596.103 673.08 597.503 668.12 597.103 662.12C591.583 666.04 585.503 668 578.863 668C574.303 668 569.943 666.64 565.783 663.92C561.783 661.2 558.863 657.64 557.023 653.24C555.423 649.16 554.623 644.48 554.623 639.2C554.623 631.12 556.863 624.36 561.343 618.92C566.063 613.24 572.303 610.4 580.063 610.4C586.223 610.4 591.903 612.24 597.103 615.92C596.943 612.32 598.703 610.52 602.383 610.52C605.583 610.52 607.223 612.24 607.303 615.68C607.383 620.4 607.423 625.12 607.423 629.84C607.423 634.48 607.423 639.2 607.423 644Z" fill="#484747"/>
<rect x="422" y="972" width="143" height="143" rx="20" fill="#D9D9D9" fill-opacity="0.2"/>
<rect x="426" y="976" width="135" height="135" rx="16" stroke="black" stroke-opacity="0.2" stroke-width="8" stroke-dasharray="20 20"/>
<path d="M599.383 230.04C599.383 234.2 598.343 238.36 596.263 242.52C594.023 247.08 590.903 249.92 586.903 251.04C588.583 253.44 589.703 255.24 590.263 256.44C590.823 257.56 591.783 259.28 593.143 261.6C594.423 265.84 596.223 269.4 598.543 272.28C600.943 275.08 603.943 277.4 607.543 279.24C609.463 280.68 610.423 282.36 610.423 284.28C610.423 285.56 609.903 286.68 608.863 287.64C607.823 288.6 606.623 289.08 605.263 289.08C604.543 289.08 602.503 288.36 599.143 286.92C595.863 285.4 592.983 283.16 590.503 280.2C588.023 277.24 585.583 272.44 583.183 265.8C581.343 260.84 579.063 257.04 576.343 254.4C575.943 254.08 575.503 253.76 575.023 253.44C574.543 253.12 574.183 252.8 573.943 252.48H565.543V284.28C565.543 287.16 563.823 288.6 560.383 288.6C556.863 288.6 555.103 287.16 555.103 284.28V213.6C555.103 212 556.343 210.64 558.823 209.52C561.303 208.32 564.823 207.72 569.383 207.72C575.063 207.72 579.623 207.96 583.063 208.44C586.503 208.92 589.143 209.64 590.983 210.6C596.583 213.56 599.383 220.04 599.383 230.04ZM589.423 229.56C589.423 226.52 588.743 223.88 587.383 221.64C586.583 220.36 585.783 219.48 584.983 219C584.183 218.44 583.063 218.16 581.623 218.16C581.543 218.16 580.103 218.12 577.303 218.04C574.503 217.96 570.583 218 565.543 218.16V241.68C565.543 241.68 566.103 241.68 567.223 241.68C568.343 241.68 569.263 241.68 569.983 241.68C570.703 241.68 571.303 241.68 571.783 241.68C572.263 241.68 573.463 241.68 575.383 241.68C578.743 241.68 582.063 241.04 585.343 239.76C588.063 237.36 589.423 233.96 589.423 229.56Z" fill="#484747"/>
<path d="M738.5 1327.5C738.5 1330.26 740.739 1332.5 743.5 1332.5C746.261 1332.5 748.5 1330.26 748.5 1327.5H738.5ZM747.036 714.964C745.083 713.012 741.917 713.012 739.964 714.964L708.145 746.784C706.192 748.737 706.192 751.903 708.145 753.855C710.097 755.808 713.263 755.808 715.216 753.855L743.5 725.571L771.784 753.855C773.737 755.808 776.903 755.808 778.855 753.855C780.808 751.903 780.808 748.737 778.855 746.784L747.036 714.964ZM748.5 1327.5V718.5H738.5V1327.5H748.5Z" fill="#FF6A13"/>
<path d="M488.5 1327.5C488.5 1330.26 490.739 1332.5 493.5 1332.5C496.261 1332.5 498.5 1330.26 498.5 1327.5H488.5ZM497.036 1118.96C495.083 1117.01 491.917 1117.01 489.964 1118.96L458.145 1150.78C456.192 1152.74 456.192 1155.9 458.145 1157.86C460.097 1159.81 463.263 1159.81 465.216 1157.86L493.5 1129.57L521.784 1157.86C523.737 1159.81 526.903 1159.81 528.855 1157.86C530.808 1155.9 530.808 1152.74 528.855 1150.78L497.036 1118.96ZM498.5 1327.5V1122.5H488.5V1327.5H498.5Z" fill="#FF6A13"/>
<path d="M411.761 914.323C411.761 917.085 414 919.323 416.761 919.323C419.523 919.323 421.761 917.085 421.761 914.323H411.761ZM420.297 714.964C418.344 713.012 415.179 713.012 413.226 714.964L381.406 746.784C379.454 748.737 379.454 751.903 381.406 753.855C383.359 755.808 386.525 755.808 388.477 753.855L416.761 725.571L445.046 753.855C446.998 755.808 450.164 755.808 452.117 753.855C454.069 751.903 454.069 748.737 452.117 746.784L420.297 714.964ZM421.761 914.323V718.5H411.761V914.323H421.761Z" fill="#FF6A13"/>
<path d="M575.588 506.145C575.588 508.907 577.826 511.145 580.588 511.145C583.349 511.145 585.588 508.907 585.588 506.145H575.588ZM584.123 322.964C582.171 321.012 579.005 321.012 577.052 322.964L545.233 354.784C543.28 356.737 543.28 359.903 545.233 361.855C547.185 363.808 550.351 363.808 552.304 361.855L580.588 333.571L608.872 361.855C610.825 363.808 613.991 363.808 615.943 361.855C617.896 359.903 617.896 356.737 615.943 354.784L584.123 322.964ZM585.588 506.145V326.5H575.588V506.145H585.588Z" fill="#FF6A13"/>
<path d="M322 600C322 547.36 344.302 547.36 387.468 547.36L559 547L581 506L603 547L773.696 547.267C816.863 547.267 840 547.36 840 600" stroke="#FF6A13" stroke-width="10" stroke-linecap="round" stroke-linejoin="round"/>
<path d="M241 1002C241 949.36 256.069 949.36 285.235 949.36L394 949.36L416 908L438 949.267L546.2 949.267C575.367 949.267 591 949.36 591 1002" stroke="#FF6A13" stroke-width="10" stroke-linecap="round" stroke-linejoin="round"/>
</svg>
