<svg width="1080" height="1650" viewBox="0 0 1080 1650" fill="none" xmlns="http://www.w3.org/2000/svg">
<path d="M339.543 1441.84C339.543 1443.76 337.943 1444.72 334.743 1444.72C332.103 1444.72 330.343 1443.92 329.463 1442.32L313.503 1411.12L296.103 1444C294.983 1444.72 293.623 1445.08 292.023 1445.08C288.263 1445.08 286.383 1444.04 286.383 1441.96C286.383 1440.6 293.663 1427.12 308.223 1401.52C295.663 1378.8 289.383 1367 289.383 1366.12C289.383 1364.92 290.143 1363.92 291.663 1363.12C293.103 1362.48 294.383 1362.16 295.503 1362.16C297.983 1362.16 299.623 1363.04 300.423 1364.8L313.623 1392.04L326.943 1365.64C328.143 1363.24 330.303 1362.04 333.423 1362.04C334.543 1362.04 335.583 1362.36 336.543 1363C337.583 1363.64 338.103 1364.48 338.103 1365.52C338.103 1366.96 331.543 1379 318.423 1401.64C332.503 1426.52 339.543 1439.92 339.543 1441.84Z" fill="#484747"/>
<path d="M801.383 1366L779.423 1411.36L779.303 1441.36C779.303 1442.8 778.663 1443.8 777.383 1444.36C776.183 1445.08 774.903 1445.44 773.543 1445.44C770.423 1445.44 768.863 1444.16 768.863 1441.6L769.103 1411.36C754.143 1381.52 746.663 1366.12 746.663 1365.16C746.663 1363.64 748.423 1362.88 751.943 1362.88C755.383 1362.88 757.543 1363.8 758.423 1365.64L774.623 1399.84L790.583 1365.88C791.623 1363.72 794.103 1362.64 798.023 1362.64C799.463 1362.64 800.583 1363.76 801.383 1366Z" fill="#484747"/>
<path d="M627.103 1041V1024.44C622.223 1020.44 616.823 1018.44 610.903 1018.44C600.743 1018.44 595.663 1024.56 595.663 1036.8C595.663 1048.88 600.343 1054.92 609.703 1054.92C613.943 1054.92 617.823 1053.72 621.343 1051.32C625.183 1048.6 627.103 1045.16 627.103 1041ZM637.423 1041V1062.24C637.423 1070.32 634.783 1077.08 629.503 1082.52C624.303 1088.04 617.743 1090.84 609.823 1090.92C605.503 1090.68 600.783 1090.36 595.663 1089.96C590.943 1089.08 587.423 1087.92 585.103 1086.48C582.783 1085.04 582.143 1082.92 583.183 1080.12C584.143 1077.64 585.903 1076.52 588.463 1076.76C591.023 1077.08 593.423 1077.76 595.663 1078.8C600.383 1079.68 604.303 1080.12 607.423 1080.12C614.223 1080.12 619.383 1078.08 622.903 1074C626.103 1070.08 627.503 1065.12 627.103 1059.12C621.583 1063.04 615.503 1065 608.863 1065C604.303 1065 599.943 1063.64 595.783 1060.92C591.783 1058.2 588.863 1054.64 587.023 1050.24C585.423 1046.16 584.623 1041.48 584.623 1036.2C584.623 1028.12 586.863 1021.36 591.343 1015.92C596.063 1010.24 602.303 1007.4 610.063 1007.4C616.223 1007.4 621.903 1009.24 627.103 1012.92C626.943 1009.32 628.703 1007.52 632.383 1007.52C635.583 1007.52 637.223 1009.24 637.303 1012.68C637.383 1017.4 637.423 1022.12 637.423 1026.84C637.423 1031.48 637.423 1036.2 637.423 1041Z" fill="#484747"/>
<rect x="241" y="568" width="143" height="143" rx="20" fill="#D9D9D9" fill-opacity="0.2"/>
<rect x="245" y="572" width="135" height="135" rx="16" stroke="black" stroke-opacity="0.2" stroke-width="8" stroke-dasharray="20 20"/>
<rect x="625" y="568" width="143" height="143" rx="20" fill="#D9D9D9" fill-opacity="0.2"/>
<rect x="629" y="572" width="135" height="135" rx="16" stroke="black" stroke-opacity="0.2" stroke-width="8" stroke-dasharray="20 20"/>
<path d="M526.504 607.88C526.664 609.96 526.104 611.68 524.824 613.04C524.184 613.52 523.384 613.64 522.424 613.4C521.384 613.24 520.384 612.96 519.424 612.56C518.464 612.16 517.504 611.68 516.544 611.12C514.224 609.76 511.984 609.08 509.824 609.08C508.064 609.08 506.784 609.6 505.984 610.64C504.384 612.16 503.504 615.04 503.344 619.28C503.344 619.92 503.344 620.72 503.344 621.68C503.344 622.64 503.304 623.8 503.224 625.16H516.424C517.864 625.16 519.024 626.08 519.904 627.92C520.064 628.32 520.184 628.76 520.264 629.24C520.344 629.64 520.424 630.08 520.504 630.56C520.584 631.84 520.344 633.08 519.784 634.28C519.144 635.16 518.144 635.6 516.784 635.6H503.224V675.08C503.384 675.08 503.384 675.16 503.224 675.32H503.104C503.184 677.48 502.704 679 501.664 679.88C500.624 680.76 499.424 681.2 498.064 681.2C494.624 681.12 492.904 679.08 492.904 675.08V635.6H487.264C485.984 635.6 485.024 635.16 484.384 634.28C483.664 633.08 483.304 631.84 483.304 630.56C483.304 629.28 483.664 628.08 484.384 626.96C484.944 625.76 485.904 625.16 487.264 625.16H492.904C492.984 622.6 493.024 620.64 493.024 619.28C493.104 617.92 493.144 617.12 493.144 616.88C493.144 613.52 493.504 610.64 494.224 608.24C494.944 605.84 496.304 603.68 498.304 601.76C500.224 599.92 503.024 598.96 506.704 598.88C511.584 598.72 515.704 599.36 519.064 600.8C523.944 602.88 526.424 605.24 526.504 607.88Z" fill="#484747"/>
<rect x="702" y="972" width="143" height="143" rx="20" fill="#D9D9D9" fill-opacity="0.2"/>
<rect x="706" y="976" width="135" height="135" rx="16" stroke="black" stroke-opacity="0.2" stroke-width="8" stroke-dasharray="20 20"/>
<path d="M523.384 230.04C523.384 234.2 522.344 238.36 520.264 242.52C518.024 247.08 514.904 249.92 510.904 251.04C512.584 253.44 513.704 255.24 514.264 256.44C514.824 257.56 515.784 259.28 517.144 261.6C518.424 265.84 520.224 269.4 522.544 272.28C524.944 275.08 527.944 277.4 531.544 279.24C533.464 280.68 534.424 282.36 534.424 284.28C534.424 285.56 533.904 286.68 532.864 287.64C531.824 288.6 530.624 289.08 529.264 289.08C528.544 289.08 526.504 288.36 523.144 286.92C519.864 285.4 516.984 283.16 514.504 280.2C512.024 277.24 509.584 272.44 507.184 265.8C505.344 260.84 503.064 257.04 500.344 254.4C499.944 254.08 499.504 253.76 499.024 253.44C498.544 253.12 498.184 252.8 497.944 252.48H489.544V284.28C489.544 287.16 487.824 288.6 484.384 288.6C480.864 288.6 479.104 287.16 479.104 284.28V213.6C479.104 212 480.344 210.64 482.824 209.52C485.304 208.32 488.824 207.72 493.384 207.72C499.064 207.72 503.624 207.96 507.064 208.44C510.504 208.92 513.144 209.64 514.984 210.6C520.584 213.56 523.384 220.04 523.384 230.04ZM513.424 229.56C513.424 226.52 512.744 223.88 511.384 221.64C510.584 220.36 509.784 219.48 508.984 219C508.184 218.44 507.064 218.16 505.624 218.16C505.544 218.16 504.104 218.12 501.304 218.04C498.504 217.96 494.584 218 489.544 218.16V241.68C489.544 241.68 490.104 241.68 491.224 241.68C492.344 241.68 493.264 241.68 493.984 241.68C494.704 241.68 495.304 241.68 495.784 241.68C496.264 241.68 497.464 241.68 499.384 241.68C502.744 241.68 506.064 241.04 509.344 239.76C512.064 237.36 513.424 233.96 513.424 229.56Z" fill="#484747"/>
<path d="M307.5 1324.5C307.5 1327.26 309.739 1329.5 312.5 1329.5C315.261 1329.5 317.5 1327.26 317.5 1324.5H307.5ZM316.036 714.964C314.083 713.012 310.917 713.012 308.964 714.964L277.145 746.784C275.192 748.737 275.192 751.903 277.145 753.855C279.097 755.808 282.263 755.808 284.216 753.855L312.5 725.571L340.784 753.855C342.737 755.808 345.903 755.808 347.855 753.855C349.808 751.903 349.808 748.737 347.855 746.784L316.036 714.964ZM307.5 726.474C307.5 729.235 309.739 731.474 312.5 731.474C315.261 731.474 317.5 729.235 317.5 726.474H307.5ZM317.5 742.421C317.5 739.66 315.261 737.421 312.5 737.421C309.739 737.421 307.5 739.66 307.5 742.421H317.5ZM307.5 758.368C307.5 761.13 309.739 763.368 312.5 763.368C315.261 763.368 317.5 761.13 317.5 758.368H307.5ZM317.5 774.316C317.5 771.554 315.261 769.316 312.5 769.316C309.739 769.316 307.5 771.554 307.5 774.316H317.5ZM307.5 790.263C307.5 793.025 309.739 795.263 312.5 795.263C315.261 795.263 317.5 793.025 317.5 790.263H307.5ZM317.5 806.211C317.5 803.449 315.261 801.211 312.5 801.211C309.739 801.211 307.5 803.449 307.5 806.211H317.5ZM307.5 822.158C307.5 824.919 309.739 827.158 312.5 827.158C315.261 827.158 317.5 824.919 317.5 822.158H307.5ZM317.5 838.105C317.5 835.344 315.261 833.105 312.5 833.105C309.739 833.105 307.5 835.344 307.5 838.105H317.5ZM307.5 854.053C307.5 856.814 309.739 859.053 312.5 859.053C315.261 859.053 317.5 856.814 317.5 854.053H307.5ZM317.5 870C317.5 867.239 315.261 865 312.5 865C309.739 865 307.5 867.239 307.5 870H317.5ZM307.5 885.947C307.5 888.709 309.739 890.947 312.5 890.947C315.261 890.947 317.5 888.709 317.5 885.947H307.5ZM317.5 901.895C317.5 899.133 315.261 896.895 312.5 896.895C309.739 896.895 307.5 899.133 307.5 901.895H317.5ZM307.5 917.842C307.5 920.604 309.739 922.842 312.5 922.842C315.261 922.842 317.5 920.604 317.5 917.842H307.5ZM317.5 933.79C317.5 931.028 315.261 928.79 312.5 928.79C309.739 928.79 307.5 931.028 307.5 933.79H317.5ZM307.5 949.737C307.5 952.498 309.739 954.737 312.5 954.737C315.261 954.737 317.5 952.498 317.5 949.737H307.5ZM317.5 965.684C317.5 962.923 315.261 960.684 312.5 960.684C309.739 960.684 307.5 962.923 307.5 965.684H317.5ZM307.5 981.632C307.5 984.393 309.739 986.632 312.5 986.632C315.261 986.632 317.5 984.393 317.5 981.632H307.5ZM317.5 997.579C317.5 994.818 315.261 992.579 312.5 992.579C309.739 992.579 307.5 994.818 307.5 997.579H317.5ZM307.5 1013.53C307.5 1016.29 309.739 1018.53 312.5 1018.53C315.261 1018.53 317.5 1016.29 317.5 1013.53H307.5ZM317.5 1029.47C317.5 1026.71 315.261 1024.47 312.5 1024.47C309.739 1024.47 307.5 1026.71 307.5 1029.47H317.5ZM307.5 1045.42C307.5 1048.18 309.739 1050.42 312.5 1050.42C315.261 1050.42 317.5 1048.18 317.5 1045.42H307.5ZM317.5 1061.37C317.5 1058.61 315.261 1056.37 312.5 1056.37C309.739 1056.37 307.5 1058.61 307.5 1061.37H317.5ZM307.5 1077.32C307.5 1080.08 309.739 1082.32 312.5 1082.32C315.261 1082.32 317.5 1080.08 317.5 1077.32H307.5ZM317.5 1093.26C317.5 1090.5 315.261 1088.26 312.5 1088.26C309.739 1088.26 307.5 1090.5 307.5 1093.26H317.5ZM307.5 1109.21C307.5 1111.97 309.739 1114.21 312.5 1114.21C315.261 1114.21 317.5 1111.97 317.5 1109.21H307.5ZM317.5 1125.16C317.5 1122.4 315.261 1120.16 312.5 1120.16C309.739 1120.16 307.5 1122.4 307.5 1125.16H317.5ZM307.5 1141.11C307.5 1143.87 309.739 1146.11 312.5 1146.11C315.261 1146.11 317.5 1143.87 317.5 1141.11H307.5ZM317.5 1157.05C317.5 1154.29 315.261 1152.05 312.5 1152.05C309.739 1152.05 307.5 1154.29 307.5 1157.05H317.5ZM307.5 1173C307.5 1175.76 309.739 1178 312.5 1178C315.261 1178 317.5 1175.76 317.5 1173H307.5ZM317.5 1188.95C317.5 1186.19 315.261 1183.95 312.5 1183.95C309.739 1183.95 307.5 1186.19 307.5 1188.95H317.5ZM307.5 1204.89C307.5 1207.66 309.739 1209.89 312.5 1209.89C315.261 1209.89 317.5 1207.66 317.5 1204.89H307.5ZM317.5 1220.84C317.5 1218.08 315.261 1215.84 312.5 1215.84C309.739 1215.84 307.5 1218.08 307.5 1220.84H317.5ZM307.5 1236.79C307.5 1239.55 309.739 1241.79 312.5 1241.79C315.261 1241.79 317.5 1239.55 317.5 1236.79H307.5ZM317.5 1252.74C317.5 1249.98 315.261 1247.74 312.5 1247.74C309.739 1247.74 307.5 1249.98 307.5 1252.74H317.5ZM307.5 1268.68C307.5 1271.45 309.739 1273.68 312.5 1273.68C315.261 1273.68 317.5 1271.45 317.5 1268.68H307.5ZM317.5 1284.63C317.5 1281.87 315.261 1279.63 312.5 1279.63C309.739 1279.63 307.5 1281.87 307.5 1284.63H317.5ZM307.5 1300.58C307.5 1303.34 309.739 1305.58 312.5 1305.58C315.261 1305.58 317.5 1303.34 317.5 1300.58H307.5ZM317.5 1316.53C317.5 1313.76 315.261 1311.53 312.5 1311.53C309.739 1311.53 307.5 1313.76 307.5 1316.53H317.5ZM307.5 718.5V726.474H317.5V718.5H307.5ZM307.5 742.421V758.368H317.5V742.421H307.5ZM307.5 774.316V790.263H317.5V774.316H307.5ZM307.5 806.211V822.158H317.5V806.211H307.5ZM307.5 838.105V854.053H317.5V838.105H307.5ZM307.5 870V885.947H317.5V870H307.5ZM307.5 901.895V917.842H317.5V901.895H307.5ZM307.5 933.79V949.737H317.5V933.79H307.5ZM307.5 965.684V981.632H317.5V965.684H307.5ZM307.5 997.579V1013.53H317.5V997.579H307.5ZM307.5 1029.47V1045.42H317.5V1029.47H307.5ZM307.5 1061.37V1077.32H317.5V1061.37H307.5ZM307.5 1093.26V1109.21H317.5V1093.26H307.5ZM307.5 1125.16V1141.11H317.5V1125.16H307.5ZM307.5 1157.05V1173H317.5V1157.05H307.5ZM307.5 1188.95V1204.89H317.5V1188.95H307.5ZM307.5 1220.84V1236.79H317.5V1220.84H307.5ZM307.5 1252.74V1268.68H317.5V1252.74H307.5ZM307.5 1284.63V1300.58H317.5V1284.63H307.5ZM307.5 1316.53V1324.5H317.5V1316.53H307.5Z" fill="#FF6A13"/>
<path d="M768.5 1324.5C768.5 1327.26 770.739 1329.5 773.5 1329.5C776.261 1329.5 778.5 1327.26 778.5 1324.5H768.5ZM777.035 1118.96C775.083 1117.01 771.917 1117.01 769.964 1118.96L738.145 1150.78C736.192 1152.74 736.192 1155.9 738.145 1157.86C740.097 1159.81 743.263 1159.81 745.216 1157.86L773.5 1129.57L801.784 1157.86C803.737 1159.81 806.903 1159.81 808.855 1157.86C810.808 1155.9 810.808 1152.74 808.855 1150.78L777.035 1118.96ZM778.5 1324.5V1122.5H768.5V1324.5H778.5Z" fill="#FF6A13"/>
<path d="M499.588 506.145C499.588 508.907 501.827 511.145 504.588 511.145C507.349 511.145 509.588 508.907 509.588 506.145H499.588ZM508.124 322.964C506.171 321.012 503.005 321.012 501.053 322.964L469.233 354.784C467.28 356.737 467.28 359.903 469.233 361.855C471.185 363.808 474.351 363.808 476.304 361.855L504.588 333.571L532.872 361.855C534.825 363.808 537.991 363.808 539.943 361.855C541.896 359.903 541.896 356.737 539.943 354.784L508.124 322.964ZM509.588 506.145V326.5H499.588V506.145H509.588Z" fill="#FF6A13"/>
<path d="M690.915 910.301C690.915 913.062 693.153 915.301 695.915 915.301C698.676 915.301 700.915 913.062 700.915 910.301H690.915ZM699.45 714.964C697.498 713.012 694.332 713.012 692.379 714.964L660.56 746.784C658.607 748.737 658.607 751.903 660.56 753.855C662.512 755.808 665.678 755.808 667.631 753.855L695.915 725.571L724.199 753.855C726.152 755.808 729.318 755.808 731.27 753.855C733.223 751.903 733.223 748.737 731.27 746.784L699.45 714.964ZM700.915 910.301V718.5H690.915V910.301H700.915Z" fill="#FF6A13"/>
<path d="M209 600C209 547.36 234.531 547.36 283.947 547.36L480.315 547L505.5 506L530.685 547L726.097 547.267C775.513 547.267 802 547.36 802 600" stroke="#FF6A13" stroke-width="10" stroke-linecap="round" stroke-linejoin="round"/>
<path d="M521 1002C521 949.36 536.069 949.36 565.235 949.36L674 949.36L696 908L718 949.267L826.2 949.267C855.367 949.267 871 949.36 871 1002" stroke="#FF6A13" stroke-width="10" stroke-linecap="round" stroke-linejoin="round"/>
</svg>
