<svg width="1080" height="1650" viewBox="0 0 1080 1650" fill="none" xmlns="http://www.w3.org/2000/svg">
<path d="M452.543 1441.84C452.543 1443.76 450.943 1444.72 447.743 1444.72C445.103 1444.72 443.343 1443.92 442.463 1442.32L426.503 1411.12L409.103 1444C407.983 1444.72 406.623 1445.08 405.023 1445.08C401.263 1445.08 399.383 1444.04 399.383 1441.96C399.383 1440.6 406.663 1427.12 421.223 1401.52C408.663 1378.8 402.383 1367 402.383 1366.12C402.383 1364.92 403.143 1363.92 404.663 1363.12C406.103 1362.48 407.383 1362.16 408.503 1362.16C410.983 1362.16 412.623 1363.04 413.423 1364.8L426.623 1392.04L439.943 1365.64C441.143 1363.24 443.303 1362.04 446.423 1362.04C447.543 1362.04 448.583 1362.36 449.543 1363C450.583 1363.64 451.103 1364.48 451.103 1365.52C451.103 1366.96 444.543 1379 431.423 1401.64C445.503 1426.52 452.543 1439.92 452.543 1441.84Z" fill="#484747"/>
<path d="M836.383 1366L814.423 1411.36L814.303 1441.36C814.303 1442.8 813.663 1443.8 812.383 1444.36C811.183 1445.08 809.903 1445.44 808.543 1445.44C805.423 1445.44 803.863 1444.16 803.863 1441.6L804.103 1411.36C789.143 1381.52 781.663 1366.12 781.663 1365.16C781.663 1363.64 783.423 1362.88 786.943 1362.88C790.383 1362.88 792.543 1363.8 793.423 1365.64L809.623 1399.84L825.583 1365.88C826.623 1363.72 829.103 1362.64 833.023 1362.64C834.463 1362.64 835.583 1363.76 836.383 1366Z" fill="#484747"/>
<path d="M662.103 1041V1024.44C657.223 1020.44 651.823 1018.44 645.903 1018.44C635.743 1018.44 630.663 1024.56 630.663 1036.8C630.663 1048.88 635.343 1054.92 644.703 1054.92C648.943 1054.92 652.823 1053.72 656.343 1051.32C660.183 1048.6 662.103 1045.16 662.103 1041ZM672.423 1041V1062.24C672.423 1070.32 669.783 1077.08 664.503 1082.52C659.303 1088.04 652.743 1090.84 644.823 1090.92C640.503 1090.68 635.783 1090.36 630.663 1089.96C625.943 1089.08 622.423 1087.92 620.103 1086.48C617.783 1085.04 617.143 1082.92 618.183 1080.12C619.143 1077.64 620.903 1076.52 623.463 1076.76C626.023 1077.08 628.423 1077.76 630.663 1078.8C635.383 1079.68 639.303 1080.12 642.423 1080.12C649.223 1080.12 654.383 1078.08 657.903 1074C661.103 1070.08 662.503 1065.12 662.103 1059.12C656.583 1063.04 650.503 1065 643.863 1065C639.303 1065 634.943 1063.64 630.783 1060.92C626.783 1058.2 623.863 1054.64 622.023 1050.24C620.423 1046.16 619.623 1041.48 619.623 1036.2C619.623 1028.12 621.863 1021.36 626.343 1015.92C631.063 1010.24 637.303 1007.4 645.063 1007.4C651.223 1007.4 656.903 1009.24 662.103 1012.92C661.943 1009.32 663.703 1007.52 667.383 1007.52C670.583 1007.52 672.223 1009.24 672.303 1012.68C672.383 1017.4 672.423 1022.12 672.423 1026.84C672.423 1031.48 672.423 1036.2 672.423 1041Z" fill="#484747"/>
<path d="M280.103 1041V1024.44C275.223 1020.44 269.823 1018.44 263.903 1018.44C253.743 1018.44 248.663 1024.56 248.663 1036.8C248.663 1048.88 253.343 1054.92 262.703 1054.92C266.943 1054.92 270.823 1053.72 274.343 1051.32C278.183 1048.6 280.103 1045.16 280.103 1041ZM290.423 1041V1062.24C290.423 1070.32 287.783 1077.08 282.503 1082.52C277.303 1088.04 270.743 1090.84 262.823 1090.92C258.503 1090.68 253.783 1090.36 248.663 1089.96C243.943 1089.08 240.423 1087.92 238.103 1086.48C235.783 1085.04 235.143 1082.92 236.183 1080.12C237.143 1077.64 238.903 1076.52 241.463 1076.76C244.023 1077.08 246.423 1077.76 248.663 1078.8C253.383 1079.68 257.303 1080.12 260.423 1080.12C267.223 1080.12 272.383 1078.08 275.903 1074C279.103 1070.08 280.503 1065.12 280.103 1059.12C274.583 1063.04 268.503 1065 261.863 1065C257.303 1065 252.943 1063.64 248.783 1060.92C244.783 1058.2 241.863 1054.64 240.023 1050.24C238.423 1046.16 237.623 1041.48 237.623 1036.2C237.623 1028.12 239.863 1021.36 244.343 1015.92C249.063 1010.24 255.303 1007.4 263.063 1007.4C269.223 1007.4 274.903 1009.24 280.103 1012.92C279.943 1009.32 281.703 1007.52 285.383 1007.52C288.583 1007.52 290.223 1009.24 290.303 1012.68C290.383 1017.4 290.423 1022.12 290.423 1026.84C290.423 1031.48 290.423 1036.2 290.423 1041Z" fill="#484747"/>
<rect x="278" y="568" width="143" height="143" rx="20" fill="#D9D9D9" fill-opacity="0.2"/>
<rect x="282" y="572" width="135" height="135" rx="16" stroke="black" stroke-opacity="0.2" stroke-width="8" stroke-dasharray="20 20"/>
<rect x="659" y="568" width="143" height="143" rx="20" fill="#D9D9D9" fill-opacity="0.2"/>
<rect x="663" y="572" width="135" height="135" rx="16" stroke="black" stroke-opacity="0.2" stroke-width="8" stroke-dasharray="20 20"/>
<path d="M561.504 607.88C561.664 609.96 561.104 611.68 559.824 613.04C559.184 613.52 558.384 613.64 557.424 613.4C556.384 613.24 555.384 612.96 554.424 612.56C553.464 612.16 552.504 611.68 551.544 611.12C549.224 609.76 546.984 609.08 544.824 609.08C543.064 609.08 541.784 609.6 540.984 610.64C539.384 612.16 538.504 615.04 538.344 619.28C538.344 619.92 538.344 620.72 538.344 621.68C538.344 622.64 538.304 623.8 538.224 625.16H551.424C552.864 625.16 554.024 626.08 554.904 627.92C555.064 628.32 555.184 628.76 555.264 629.24C555.344 629.64 555.424 630.08 555.504 630.56C555.584 631.84 555.344 633.08 554.784 634.28C554.144 635.16 553.144 635.6 551.784 635.6H538.224V675.08C538.384 675.08 538.384 675.16 538.224 675.32H538.104C538.184 677.48 537.704 679 536.664 679.88C535.624 680.76 534.424 681.2 533.064 681.2C529.624 681.12 527.904 679.08 527.904 675.08V635.6H522.264C520.984 635.6 520.024 635.16 519.384 634.28C518.664 633.08 518.304 631.84 518.304 630.56C518.304 629.28 518.664 628.08 519.384 626.96C519.944 625.76 520.904 625.16 522.264 625.16H527.904C527.984 622.6 528.024 620.64 528.024 619.28C528.104 617.92 528.144 617.12 528.144 616.88C528.144 613.52 528.504 610.64 529.224 608.24C529.944 605.84 531.304 603.68 533.304 601.76C535.224 599.92 538.024 598.96 541.704 598.88C546.584 598.72 550.704 599.36 554.064 600.8C558.944 602.88 561.424 605.24 561.504 607.88Z" fill="#484747"/>
<rect x="737" y="972" width="143" height="143" rx="20" fill="#D9D9D9" fill-opacity="0.2"/>
<rect x="741" y="976" width="135" height="135" rx="16" stroke="black" stroke-opacity="0.2" stroke-width="8" stroke-dasharray="20 20"/>
<rect x="355" y="972" width="143" height="143" rx="20" fill="#D9D9D9" fill-opacity="0.2"/>
<rect x="359" y="976" width="135" height="135" rx="16" stroke="black" stroke-opacity="0.2" stroke-width="8" stroke-dasharray="20 20"/>
<path d="M558.384 230.04C558.384 234.2 557.344 238.36 555.264 242.52C553.024 247.08 549.904 249.92 545.904 251.04C547.584 253.44 548.704 255.24 549.264 256.44C549.824 257.56 550.784 259.28 552.144 261.6C553.424 265.84 555.224 269.4 557.544 272.28C559.944 275.08 562.944 277.4 566.544 279.24C568.464 280.68 569.424 282.36 569.424 284.28C569.424 285.56 568.904 286.68 567.864 287.64C566.824 288.6 565.624 289.08 564.264 289.08C563.544 289.08 561.504 288.36 558.144 286.92C554.864 285.4 551.984 283.16 549.504 280.2C547.024 277.24 544.584 272.44 542.184 265.8C540.344 260.84 538.064 257.04 535.344 254.4C534.944 254.08 534.504 253.76 534.024 253.44C533.544 253.12 533.184 252.8 532.944 252.48H524.544V284.28C524.544 287.16 522.824 288.6 519.384 288.6C515.864 288.6 514.104 287.16 514.104 284.28V213.6C514.104 212 515.344 210.64 517.824 209.52C520.304 208.32 523.824 207.72 528.384 207.72C534.064 207.72 538.624 207.96 542.064 208.44C545.504 208.92 548.144 209.64 549.984 210.6C555.584 213.56 558.384 220.04 558.384 230.04ZM548.424 229.56C548.424 226.52 547.744 223.88 546.384 221.64C545.584 220.36 544.784 219.48 543.984 219C543.184 218.44 542.064 218.16 540.624 218.16C540.544 218.16 539.104 218.12 536.304 218.04C533.504 217.96 529.584 218 524.544 218.16V241.68C524.544 241.68 525.104 241.68 526.224 241.68C527.344 241.68 528.264 241.68 528.984 241.68C529.704 241.68 530.304 241.68 530.784 241.68C531.264 241.68 532.464 241.68 534.384 241.68C537.744 241.68 541.064 241.04 544.344 239.76C547.064 237.36 548.424 233.96 548.424 229.56Z" fill="#484747"/>
<path d="M803.5 1324.5C803.5 1327.26 805.739 1329.5 808.5 1329.5C811.261 1329.5 813.5 1327.26 813.5 1324.5H803.5ZM812.036 1118.96C810.083 1117.01 806.917 1117.01 804.964 1118.96L773.145 1150.78C771.192 1152.74 771.192 1155.9 773.145 1157.86C775.097 1159.81 778.263 1159.81 780.216 1157.86L808.5 1129.57L836.784 1157.86C838.737 1159.81 841.903 1159.81 843.855 1157.86C845.808 1155.9 845.808 1152.74 843.855 1150.78L812.036 1118.96ZM813.5 1324.5V1122.5H803.5V1324.5H813.5Z" fill="#FF6A13"/>
<path d="M726.273 913.668C726.273 916.43 728.512 918.668 731.273 918.668C734.034 918.668 736.273 916.43 736.273 913.668H726.273ZM734.808 714.964C732.856 713.012 729.69 713.012 727.737 714.964L695.918 746.784C693.965 748.737 693.965 751.903 695.918 753.855C697.87 755.808 701.036 755.808 702.989 753.855L731.273 725.571L759.557 753.855C761.51 755.808 764.676 755.808 766.628 753.855C768.581 751.903 768.581 748.737 766.628 746.784L734.808 714.964ZM736.273 913.668V718.5H726.273V913.668H736.273Z" fill="#FF6A13"/>
<path d="M421.5 1327.5C421.5 1330.26 423.739 1332.5 426.5 1332.5C429.261 1332.5 431.5 1330.26 431.5 1327.5H421.5ZM430.036 1118.96C428.083 1117.01 424.917 1117.01 422.964 1118.96L391.145 1150.78C389.192 1152.74 389.192 1155.9 391.145 1157.86C393.097 1159.81 396.263 1159.81 398.216 1157.86L426.5 1129.57L454.784 1157.86C456.737 1159.81 459.903 1159.81 461.855 1157.86C463.808 1155.9 463.808 1152.74 461.855 1150.78L430.036 1118.96ZM421.5 1132.75C421.5 1135.51 423.739 1137.75 426.5 1137.75C429.261 1137.75 431.5 1135.51 431.5 1132.75H421.5ZM431.5 1153.25C431.5 1150.49 429.261 1148.25 426.5 1148.25C423.739 1148.25 421.5 1150.49 421.5 1153.25H431.5ZM421.5 1173.75C421.5 1176.51 423.739 1178.75 426.5 1178.75C429.261 1178.75 431.5 1176.51 431.5 1173.75H421.5ZM431.5 1194.25C431.5 1191.49 429.261 1189.25 426.5 1189.25C423.739 1189.25 421.5 1191.49 421.5 1194.25H431.5ZM421.5 1214.75C421.5 1217.51 423.739 1219.75 426.5 1219.75C429.261 1219.75 431.5 1217.51 431.5 1214.75H421.5ZM431.5 1235.25C431.5 1232.49 429.261 1230.25 426.5 1230.25C423.739 1230.25 421.5 1232.49 421.5 1235.25H431.5ZM421.5 1255.75C421.5 1258.51 423.739 1260.75 426.5 1260.75C429.261 1260.75 431.5 1258.51 431.5 1255.75H421.5ZM431.5 1276.25C431.5 1273.49 429.261 1271.25 426.5 1271.25C423.739 1271.25 421.5 1273.49 421.5 1276.25H431.5ZM421.5 1296.75C421.5 1299.51 423.739 1301.75 426.5 1301.75C429.261 1301.75 431.5 1299.51 431.5 1296.75H421.5ZM431.5 1317.25C431.5 1314.49 429.261 1312.25 426.5 1312.25C423.739 1312.25 421.5 1314.49 421.5 1317.25H431.5ZM421.5 1122.5V1132.75H431.5V1122.5H421.5ZM421.5 1153.25V1173.75H431.5V1153.25H421.5ZM421.5 1194.25V1214.75H431.5V1194.25H421.5ZM421.5 1235.25V1255.75H431.5V1235.25H421.5ZM421.5 1276.25V1296.75H431.5V1276.25H421.5ZM421.5 1317.25V1327.5H431.5V1317.25H421.5Z" fill="#FF6A13"/>
<path d="M344.761 914.323C344.761 917.085 347 919.323 349.761 919.323C352.522 919.323 354.761 917.085 354.761 914.323H344.761ZM353.297 714.964C351.344 713.012 348.178 713.012 346.225 714.964L314.406 746.784C312.453 748.737 312.453 751.903 314.406 753.855C316.358 755.808 319.524 755.808 321.477 753.855L349.761 725.571L378.045 753.855C379.998 755.808 383.164 755.808 385.116 753.855C387.069 751.903 387.069 748.737 385.116 746.784L353.297 714.964ZM344.761 728.291C344.761 731.053 347 733.291 349.761 733.291C352.522 733.291 354.761 731.053 354.761 728.291H344.761ZM354.761 747.874C354.761 745.112 352.522 742.874 349.761 742.874C347 742.874 344.761 745.112 344.761 747.874H354.761ZM344.761 767.456C344.761 770.217 347 772.456 349.761 772.456C352.522 772.456 354.761 770.217 354.761 767.456H344.761ZM354.761 787.038C354.761 784.277 352.522 782.038 349.761 782.038C347 782.038 344.761 784.277 344.761 787.038H354.761ZM344.761 806.621C344.761 809.382 347 811.621 349.761 811.621C352.522 811.621 354.761 809.382 354.761 806.621H344.761ZM354.761 826.203C354.761 823.441 352.522 821.203 349.761 821.203C347 821.203 344.761 823.441 344.761 826.203H354.761ZM344.761 845.785C344.761 848.547 347 850.785 349.761 850.785C352.522 850.785 354.761 848.547 354.761 845.785H344.761ZM354.761 865.368C354.761 862.606 352.522 860.368 349.761 860.368C347 860.368 344.761 862.606 344.761 865.368H354.761ZM344.761 884.95C344.761 887.711 347 889.95 349.761 889.95C352.522 889.95 354.761 887.711 354.761 884.95H344.761ZM354.761 904.532C354.761 901.771 352.522 899.532 349.761 899.532C347 899.532 344.761 901.771 344.761 904.532H354.761ZM344.761 718.5V728.291H354.761V718.5H344.761ZM344.761 747.874V767.456H354.761V747.874H344.761ZM344.761 787.038V806.621H354.761V787.038H344.761ZM344.761 826.203V845.785H354.761V826.203H344.761ZM344.761 865.368V884.95H354.761V865.368H344.761ZM344.761 904.532V914.323H354.761V904.532H344.761Z" fill="#FF6A13"/>
<path d="M534.588 506.145C534.588 508.907 536.827 511.145 539.588 511.145C542.35 511.145 544.588 508.907 544.588 506.145H534.588ZM543.124 322.964C541.171 321.012 538.005 321.012 536.053 322.964L504.233 354.784C502.28 356.737 502.28 359.903 504.233 361.855C506.185 363.808 509.351 363.808 511.304 361.855L539.588 333.571L567.872 361.855C569.825 363.808 572.991 363.808 574.943 361.855C576.896 359.903 576.896 356.737 574.943 354.784L543.124 322.964ZM544.588 506.145V326.5H534.588V506.145H544.588Z" fill="#FF6A13"/>
<path d="M254 600C254 547.36 278.627 547.36 326.293 547.36L515.707 547L540 506L564.293 547L752.785 547.267C800.451 547.267 826 547.36 826 600" stroke="#FF6A13" stroke-width="10" stroke-linecap="round" stroke-linejoin="round"/>
<path d="M556 1002C556 949.36 571.069 949.36 600.235 949.36L709 949.36L731 908L753 949.267L861.2 949.267C890.367 949.267 906 949.36 906 1002" stroke="#FF6A13" stroke-width="10" stroke-linecap="round" stroke-linejoin="round"/>
<path d="M174 1002C174 949.36 189.069 949.36 218.235 949.36L327 949.36L349 908L371 949.267L479.2 949.267C508.367 949.267 524 949.36 524 1002" stroke="#FF6A13" stroke-width="10" stroke-linecap="round" stroke-linejoin="round"/>
</svg>
